<svg width="56" height="56" viewBox="0 0 56 56" fill="none" xmlns="http://www.w3.org/2000/svg">
<rect width="56" height="56" fill="white" fill-opacity="0.1"/>
<path d="M35.35 22.225C35.35 23.0948 34.6448 23.8 33.775 23.8C32.9052 23.8 32.2 23.0948 32.2 22.225C32.2 21.3552 32.9052 20.65 33.775 20.65C34.6448 20.65 35.35 21.3552 35.35 22.225Z" fill="white"/>
<path fill-rule="evenodd" clip-rule="evenodd" d="M28 33.25C30.8995 33.25 33.25 30.8995 33.25 28C33.25 25.1005 30.8995 22.75 28 22.75C25.1005 22.75 22.75 25.1005 22.75 28C22.75 30.8995 25.1005 33.25 28 33.25ZM28 31.15C29.7397 31.15 31.15 29.7397 31.15 28C31.15 26.2603 29.7397 24.85 28 24.85C26.2603 24.85 24.85 26.2603 24.85 28C24.85 29.7397 26.2603 31.15 28 31.15Z" fill="white"/>
<path fill-rule="evenodd" clip-rule="evenodd" d="M17.5 27.58C17.5 24.0517 17.5 22.2875 18.1867 20.9399C18.7907 19.7544 19.7544 18.7907 20.9399 18.1867C22.2875 17.5 24.0517 17.5 27.58 17.5H28.42C31.9483 17.5 33.7125 17.5 35.0601 18.1867C36.2456 18.7907 37.2093 19.7544 37.8133 20.9399C38.5 22.2875 38.5 24.0517 38.5 27.58V28.42C38.5 31.9483 38.5 33.7125 37.8133 35.0601C37.2093 36.2456 36.2456 37.2093 35.0601 37.8133C33.7125 38.5 31.9483 38.5 28.42 38.5H27.58C24.0517 38.5 22.2875 38.5 20.9399 37.8133C19.7544 37.2093 18.7907 36.2456 18.1867 35.0601C17.5 33.7125 17.5 31.9483 17.5 28.42V27.58ZM27.58 19.6H28.42C30.2188 19.6 31.4416 19.6016 32.3868 19.6789C33.3075 19.7541 33.7783 19.8904 34.1068 20.0578C34.897 20.4604 35.5396 21.103 35.9422 21.8932C36.1096 22.2217 36.2459 22.6925 36.3211 23.6132C36.3984 24.5584 36.4 25.7812 36.4 27.58V28.42C36.4 30.2188 36.3984 31.4416 36.3211 32.3868C36.2459 33.3075 36.1096 33.7783 35.9422 34.1068C35.5396 34.897 34.897 35.5396 34.1068 35.9422C33.7783 36.1096 33.3075 36.2459 32.3868 36.3211C31.4416 36.3984 30.2188 36.4 28.42 36.4H27.58C25.7812 36.4 24.5584 36.3984 23.6132 36.3211C22.6925 36.2459 22.2217 36.1096 21.8932 35.9422C21.103 35.5396 20.4604 34.897 20.0578 34.1068C19.8904 33.7783 19.7541 33.3075 19.6789 32.3868C19.6016 31.4416 19.6 30.2188 19.6 28.42V27.58C19.6 25.7812 19.6016 24.5584 19.6789 23.6132C19.7541 22.6925 19.8904 22.2217 20.0578 21.8932C20.4604 21.103 21.103 20.4604 21.8932 20.0578C22.2217 19.8904 22.6925 19.7541 23.6132 19.6789C24.5584 19.6016 25.7812 19.6 27.58 19.6Z" fill="white"/>
</svg>
