<svg width="71" height="46" viewBox="0 0 71 46" fill="none" xmlns="http://www.w3.org/2000/svg">
<path d="M6.19207 0.0159912C7.77607 0.87999 10.4161 2.55999 11.6641 3.44799L9.88807 6.08799C8.54407 5.15199 6.04807 3.54399 4.46407 2.65599L6.19207 0.0159912ZM1.75207 17.056C4.44007 16.6 7.29607 15.784 9.91207 14.344C13.9921 12.064 17.3521 8.77599 19.2481 5.34399L21.0961 8.60799C18.8881 11.944 15.4801 14.968 11.5681 17.248C9.12007 18.616 5.66407 19.816 3.55207 20.2L1.75207 17.056ZM2.49607 5.48799C4.10407 6.35199 6.74407 7.98399 7.99207 8.87199L6.21607 11.56C4.87207 10.6 2.37607 8.99199 0.768066 8.12799L2.49607 5.48799Z" fill="#DD2B2B"/>
<path d="M33.7921 7.57599C33.6961 7.88799 33.6001 8.31999 33.5761 8.58399C33.3361 10.264 32.5201 15.712 32.2321 17.44H28.9201C29.2321 15.856 29.9521 11.224 30.0721 9.61599C28.9201 9.61599 24.2641 9.61599 23.5681 9.61599C22.8241 9.61599 21.8641 9.66399 21.1681 9.71199V6.54399C21.8161 6.63999 22.9201 6.71199 23.5441 6.71199C24.7681 6.71199 28.5601 6.71199 29.7121 6.71199C30.1921 6.71199 31.1761 6.61599 31.4881 6.44799L33.7921 7.57599ZM18.9841 16.264C19.6081 16.336 20.5201 16.408 21.3361 16.408C22.7761 16.408 32.7601 16.408 33.9361 16.408C34.5361 16.408 35.6641 16.36 36.2881 16.288V19.384C35.7841 19.36 34.6081 19.336 33.9841 19.336C32.7361 19.336 22.5601 19.336 21.3361 19.336C20.4961 19.336 19.8721 19.36 18.9841 19.408V16.264Z" fill="#DD2B2B"/>
<path d="M39.7921 0.0159912C41.3761 0.87999 44.0161 2.55999 45.2641 3.44799L43.4881 6.08799C42.1441 5.15199 39.6481 3.54399 38.0641 2.65599L39.7921 0.0159912ZM35.3521 17.056C38.0401 16.6 40.8961 15.784 43.5121 14.344C47.5921 12.064 50.9521 8.77599 52.8481 5.34399L54.6961 8.60799C52.4881 11.944 49.0801 14.968 45.1681 17.248C42.7201 18.616 39.2641 19.816 37.1521 20.2L35.3521 17.056ZM36.0961 5.48799C37.7041 6.35199 40.3441 7.98399 41.5921 8.87199L39.8161 11.56C38.4721 10.6 35.9761 8.99199 34.3681 8.12799L36.0961 5.48799Z" fill="#DD2B2B"/>
<path d="M58.8001 3.75999C58.8721 4.33599 59.0401 4.95999 59.1841 5.58399C60.0001 8.46399 62.2561 16.72 62.8561 18.712C62.9761 19.144 63.3121 20.2 63.4801 20.68L60.2401 21.496C60.1441 20.848 60.0001 20.056 59.8081 19.384C59.2081 17.296 57.0241 8.72799 56.2561 6.23199C56.0881 5.63199 55.8241 5.03199 55.5601 4.52799L58.8001 3.75999ZM70.3201 7.47999C69.2881 9.56799 66.8881 13.192 65.2081 14.968L62.5441 13.648C63.7921 12.544 65.4481 10.528 66.0961 9.35199C64.8481 9.56799 55.0801 11.608 53.1121 12.04L52.3681 9.18399C53.1121 9.11199 53.7841 9.03999 54.5761 8.89599C55.8721 8.70399 65.4721 6.87999 67.1761 6.49599C67.5841 6.39999 68.0641 6.25599 68.3761 6.11199L70.3201 7.47999Z" fill="#DD2B2B"/>
<path d="M13.6989 24.76C15.3549 25.888 18.4749 28.384 19.8909 29.848L17.4429 32.344C16.1949 31 13.1709 28.384 11.4189 27.184L13.6989 24.76ZM10.6749 40.744C14.4429 40.216 17.5389 38.992 19.8669 37.624C23.9709 35.176 27.0909 31.528 28.6269 28.288L30.4749 31.648C28.6749 34.912 25.4829 38.224 21.6189 40.552C19.1709 42.016 16.0749 43.336 12.7149 43.912L10.6749 40.744Z" fill="#DD2B2B"/>
<path d="M29.5389 24.616C30.3069 24.712 31.2909 24.784 32.1069 24.784C33.6189 24.784 40.3389 24.784 41.7549 24.784C42.5469 24.784 43.5069 24.712 44.3229 24.616V27.712C43.5069 27.664 42.5709 27.616 41.7549 27.616C40.3389 27.616 33.6189 27.616 32.1069 27.616C31.2909 27.616 30.2589 27.664 29.5389 27.712V24.616ZM26.7309 30.736C27.4509 30.832 28.2909 30.88 29.0349 30.88C30.5469 30.88 43.3389 30.88 44.7549 30.88C45.2589 30.88 46.3149 30.856 46.9629 30.736V33.856C46.3389 33.832 45.4269 33.808 44.7549 33.808C43.3389 33.808 30.5469 33.808 29.0349 33.808C28.3389 33.808 27.4029 33.832 26.7309 33.88V30.736ZM39.0189 32.416C39.0189 35.56 38.4669 37.96 37.4349 39.952C36.6189 41.632 34.7469 43.48 32.6349 44.584L29.8029 42.544C31.5069 41.872 33.2109 40.504 34.1469 39.088C35.3469 37.264 35.6829 35.008 35.6829 32.44L39.0189 32.416Z" fill="#DD2B2B"/>
<path d="M42.6292 36.184C45.7732 35.488 49.3252 33.88 51.2212 32.728C53.5732 31.312 55.9732 29.176 57.2212 27.616L59.5972 29.944C58.1572 31.504 55.2532 33.76 52.6372 35.296C50.4772 36.568 46.7812 38.176 44.0452 38.992L42.6292 36.184ZM50.9572 34.624L54.2212 34V42.52C54.2212 43.384 54.2452 44.656 54.3892 45.136H50.8132C50.8852 44.656 50.9572 43.384 50.9572 42.52V34.624Z" fill="#DD2B2B"/>
</svg>
