<svg width="56" height="56" viewBox="0 0 56 56" fill="none" xmlns="http://www.w3.org/2000/svg">
<rect width="56" height="56" fill="white" fill-opacity="0.1"/>
<path d="M36.7869 22.4823C37.3742 22.1361 38.3451 21.2021 38.6569 20.0824C38.0382 20.4813 36.7727 20.9426 35.9318 21.1396C35.1358 20.2846 34.0019 19.75 32.7435 19.75C30.3351 19.75 28.3826 21.7082 28.3826 24.1237C28.3826 24.4603 28.4205 24.788 28.4923 25.1028C24.6859 25.0139 21.6091 23.4165 19.5561 20.5723C19.0503 21.2371 18.0211 24.3162 20.8819 26.3631C20.4981 26.3981 19.5212 26.2581 18.9456 25.8557C18.8409 26.678 19.3119 29.3722 22.382 30.142C21.7715 30.3869 20.69 30.2819 20.4632 30.1945C20.6202 31.0692 21.8238 33.1161 24.4927 33.2386C22.7186 34.9308 19.8662 35.1813 18.25 35.0767C20.1536 36.2943 22.4153 37 24.8416 37C31.9574 37 37.2605 30.9535 37.1033 24.0223C37.948 23.4368 38.9773 22.3909 39.25 21.7619C38.6986 22.136 37.3028 22.4043 36.7869 22.4823ZM36.7869 22.4823C36.7821 22.4705 36.7918 22.4941 36.7869 22.4823Z" stroke="white" stroke-width="2"/>
</svg>
